<svg width="500" height="500" viewBox="0 0 500 500" fill="none" xmlns="http://www.w3.org/2000/svg">
<g clip-path="url(#clip0_27_3)">
<path d="M250.159 500.215C316.769 500.215 377.775 476.214 425 436.396C422.152 431.138 420.173 427.632 419.94 426.396C419.106 422.007 414.837 422.007 414.837 422.007C365.514 404.932 338.756 410.169 334.77 397.978C330.318 384.387 321.512 388.005 321.512 388.005C321.512 388.005 311.236 358.245 311.236 347.707C311.236 337.169 327.201 336.413 334.791 294.68C342.382 252.947 349.972 287.09 355.662 242.515C361.351 197.927 349.492 214.528 346.177 214.528C342.855 214.528 352.615 179.312 346.926 152.752L351.471 161.791L348.863 145.664L355.146 155.664C355.146 155.664 355.499 106.404 294.797 85.6682C245.268 71.0951 219.522 82.6857 206.687 94.7286C212.412 86.6717 219.055 81.3005 219.055 81.3005C208.977 88.9969 203.26 95.817 200.009 101.068C204.058 88.3184 213.536 78 213.536 78C198.383 93.6331 195.549 104.828 195.09 109.464C194.934 109.379 194.765 109.287 194.574 109.203C191.273 101.499 192.164 91.8451 192.164 91.8451C191.245 99.4426 191.69 104.757 192.538 108.432C188.778 107.358 181.852 106.92 169.527 110.27C169.527 110.27 180.976 107.464 189.358 110.086C176.403 108.249 159.18 118.892 154.254 141.875C148.565 168.435 157.258 214.91 153.936 214.91C150.614 214.91 138.762 198.309 144.452 242.89C150.141 287.478 157.731 253.322 165.315 295.062C172.905 336.795 189.033 337.403 189.033 347.94C189.033 358.485 179.548 388.387 179.548 388.387C179.548 388.387 169.35 385.885 165.081 397.978C160.813 410.077 134.331 404.932 85.0075 422.007C85.0075 422.007 80.7387 422.007 79.9119 426.396C79.6786 427.611 77.7704 431.025 75 436.128C122.267 476.108 183.4 500.215 250.159 500.215Z" fill="white"/>
</g>
<rect x="12.5" y="12.5" width="475" height="475" rx="237.5" stroke="white" stroke-width="25"/>
<defs>
<clipPath id="clip0_27_3">
<rect width="500" height="500" rx="250" fill="white"/>
</clipPath>
</defs>
</svg>
